<?xml version="1.0" standalone="no"?>
<!DOCTYPE svg PUBLIC "-//W3C//DTD SVG 20010904//EN"
 "http://www.w3.org/TR/2001/REC-SVG-20010904/DTD/svg10.dtd">
<svg version="1.0" xmlns="http://www.w3.org/2000/svg"
 width="1280.000000pt" height="1280.000000pt" viewBox="0 0 1280.000000 1280.000000"
 preserveAspectRatio="xMidYMid meet">
<metadata>
Created by potrace 1.16, written by Peter Selinger 2001-2019
</metadata>
<g transform="translate(0.000000,1280.000000) scale(0.100000,-0.100000)"
fill="#000000" stroke="none">
<path d="M2810 10969 c-481 -31 -899 -217 -1254 -559 -361 -347 -556 -718
-627 -1195 -20 -133 -21 -5496 -1 -5630 71 -470 266 -843 619 -1185 334 -324
683 -493 1158 -562 131 -19 2583 -19 2636 0 48 17 107 75 131 128 15 35 19 78
25 247 10 334 -21 454 -132 515 -27 16 -141 17 -1305 22 l-1275 5 -98 27
c-204 56 -389 168 -540 327 -180 189 -280 405 -307 661 -13 130 -13 5130 0
5260 27 256 127 472 307 661 151 159 336 271 540 327 l98 27 1255 5 c1419 6
1311 -1 1396 86 50 52 52 61 60 319 12 354 -32 483 -175 514 -60 13 -2317 13
-2511 0z"/>
<path d="M7670 10736 c-133 -29 -24 75 -2176 -2079 -1902 -1903 -2002 -2005
-2028 -2065 -54 -124 -54 -260 0 -384 26 -60 126 -162 2018 -2056 1095 -1097
2009 -2006 2031 -2021 127 -88 310 -102 453 -34 84 40 175 132 220 221 l37 76
3 1088 2 1088 1639 0 c1558 0 1642 1 1698 18 148 47 268 173 309 327 11 41 14
318 14 1485 0 1167 -3 1444 -14 1485 -41 154 -161 280 -309 327 -56 17 -140
18 -1698 18 l-1639 0 -2 1088 -3 1088 -37 76 c-66 133 -194 232 -332 257 -73
13 -115 13 -186 -3z"/>
</g>
</svg>
