<svg version="1.0" xmlns="http://www.w3.org/2000/svg" width="1706.7" height="1706.7" viewBox="0 0 1280 1280"><path d="M281 183c-48 3-90 22-125 56-37 35-56 72-63 119-2 14-2 550 0 563 7 47 26 85 62 119 33 32 68 49 116 56 13 2 258 2 263 0 5-1 11-7 13-13 2-3 2-7 3-24 1-34-2-46-13-52l-131-2H279l-10-3a117 117 0 0 1-85-99V377a117 117 0 0 1 85-99l9-3h126c142-1 131 0 140-9 5-5 5-6 6-32 1-35-4-48-18-51H281z"/><path d="M767 206c-13 3-2-7-218 208a3178 3178 0 0 0-202 207c-6 12-6 26 0 38 2 6 12 16 201 206l204 202c12 9 31 10 45 3 8-4 17-13 22-22l3-7 1-109V823h164c156 0 164 0 170-2 15-4 27-17 31-32l1-149-1-148c-4-16-16-28-31-33-6-2-14-2-170-2H823V239l-4-7c-7-13-20-23-33-26h-19z"/></svg>