<?xml version="1.0"?>
<svg width="512" height="512" xmlns="http://www.w3.org/2000/svg" xmlns:svg="http://www.w3.org/2000/svg">
 <title>ionicons-v5-l</title>

 <g class="layer">
  <title>Layer 1</title>
  <path d="m506.85,469.8l-116.11,-281.25a28.38,28.38 0 0 0 -52.47,0l-116.11,281.25a28.38,28.38 0 1 0 52.47,21.66l23.65,-57.27l132.46,0l23.65,57.27a28.38,28.38 0 0 0 26.24,17.56a28.38,28.38 0 0 0 26.22,-39.22l0.01,0zm-185.13,-92.37l42.79,-103.66l42.79,103.66l-85.59,0z" id="svg_1"/>
  <path d="m256.32,317.27a23.44,23.44 0 0 0 -5.21,-32.71c-0.21,-0.16 -15.98,-11.86 -38.88,-37.01c42.25,-57.2 66.19,-122.28 75.95,-152.91l34.39,0a23.44,23.44 0 0 0 0,-46.89l-123.61,0l0,-21.31a23.44,23.44 0 0 0 -46.89,0l0,21.31l-123.61,0a23.44,23.44 0 0 0 0,46.89l210.19,0c-10.14,28.72 -28.83,74.06 -57.32,115.47c-33.47,-44.42 -45.91,-73.16 -46,-73.39a23.44,23.44 0 0 0 -43.24,18.12c0.62,1.47 15.5,36.48 56.33,89.44c0.98,1.27 1.95,2.5 2.92,3.74c-41.82,47.26 -82.84,76.58 -100.01,86.04a23.44,23.44 0 1 0 22.45,41.17c2.3,-1.26 51.79,-28.65 108.3,-91.21c24,25.66 40.49,37.77 41.48,38.47a23.44,23.44 0 0 0 32.77,-5.22l0,0.01z" id="svg_2" transform="matrix(1, 0, 0, 1, 0, 0)"/>
 </g>
</svg>